<mxfile host="Electron" modified="2023-07-12T09:49:23.931Z" agent="Mozilla/5.0 (Macintosh; Intel Mac OS X 10_15_7) AppleWebKit/537.36 (KHTML, like Gecko) draw.io/21.6.1 Chrome/112.0.5615.204 Electron/24.6.1 Safari/537.36" etag="1WtK09Hwhs2KArPVWhFb" version="21.6.1" type="device">
  <diagram name="Page-1" id="74e2e168-ea6b-b213-b513-2b3c1d86103e">
    <mxGraphModel dx="954" dy="623" grid="1" gridSize="10" guides="1" tooltips="1" connect="1" arrows="1" fold="1" page="1" pageScale="1" pageWidth="1100" pageHeight="850" background="none" math="0" shadow="0">
      <root>
        <mxCell id="0" />
        <mxCell id="1" parent="0" />
        <mxCell id="UPnkIHhBLGjSzcggygLr-9" style="edgeStyle=orthogonalEdgeStyle;rounded=0;orthogonalLoop=1;jettySize=auto;html=1;exitX=0.5;exitY=1;exitDx=0;exitDy=0;entryX=0.501;entryY=-0.006;entryDx=0;entryDy=0;entryPerimeter=0;" parent="1" source="UPnkIHhBLGjSzcggygLr-1" target="UPnkIHhBLGjSzcggygLr-2" edge="1">
          <mxGeometry relative="1" as="geometry">
            <Array as="points" />
          </mxGeometry>
        </mxCell>
        <mxCell id="UPnkIHhBLGjSzcggygLr-1" value="" style="shape=ellipse;html=1;fillColor=strokeColor;strokeWidth=2;verticalLabelPosition=bottom;verticalAlignment=top;perimeter=ellipsePerimeter;" parent="1" vertex="1">
          <mxGeometry x="640" y="20" width="40" height="40" as="geometry" />
        </mxCell>
        <mxCell id="UPnkIHhBLGjSzcggygLr-10" style="edgeStyle=orthogonalEdgeStyle;rounded=0;orthogonalLoop=1;jettySize=auto;html=1;exitX=0.5;exitY=1;exitDx=0;exitDy=0;" parent="1" source="UPnkIHhBLGjSzcggygLr-2" target="UPnkIHhBLGjSzcggygLr-3" edge="1">
          <mxGeometry relative="1" as="geometry" />
        </mxCell>
        <mxCell id="UPnkIHhBLGjSzcggygLr-2" value="Identification of data needs" style="shape=rect;html=1;rounded=1;whiteSpace=wrap;align=center;" parent="1" vertex="1">
          <mxGeometry x="580" y="78" width="160" height="80" as="geometry" />
        </mxCell>
        <mxCell id="UPnkIHhBLGjSzcggygLr-11" style="edgeStyle=orthogonalEdgeStyle;rounded=0;orthogonalLoop=1;jettySize=auto;html=1;exitX=0.5;exitY=1;exitDx=0;exitDy=0;entryX=0.5;entryY=1;entryDx=0;entryDy=0;" parent="1" edge="1">
          <mxGeometry relative="1" as="geometry">
            <mxPoint x="568" y="436" as="targetPoint" />
            <mxPoint x="568" y="436" as="sourcePoint" />
          </mxGeometry>
        </mxCell>
        <mxCell id="UPnkIHhBLGjSzcggygLr-15" style="edgeStyle=orthogonalEdgeStyle;rounded=0;orthogonalLoop=1;jettySize=auto;html=1;exitX=0;exitY=0.5;exitDx=0;exitDy=0;entryX=1.012;entryY=0.5;entryDx=0;entryDy=0;entryPerimeter=0;" parent="1" source="07cjLLfpVbBd-uDX97Xu-7" target="UPnkIHhBLGjSzcggygLr-12" edge="1">
          <mxGeometry relative="1" as="geometry">
            <mxPoint x="343" y="469" as="targetPoint" />
            <mxPoint x="343" y="446" as="sourcePoint" />
          </mxGeometry>
        </mxCell>
        <mxCell id="07cjLLfpVbBd-uDX97Xu-8" value="No" style="edgeLabel;html=1;align=center;verticalAlign=middle;resizable=0;points=[];" parent="UPnkIHhBLGjSzcggygLr-15" connectable="0" vertex="1">
          <mxGeometry x="0.122" y="-1" relative="1" as="geometry">
            <mxPoint as="offset" />
          </mxGeometry>
        </mxCell>
        <mxCell id="UPnkIHhBLGjSzcggygLr-3" value="Data retrieval (possibly from multiple sources)" style="shape=rect;html=1;rounded=1;whiteSpace=wrap;align=center;" parent="1" vertex="1">
          <mxGeometry x="580" y="180" width="160" height="80" as="geometry" />
        </mxCell>
        <mxCell id="UPnkIHhBLGjSzcggygLr-5" value="Time aggregation" style="shape=rect;html=1;rounded=1;whiteSpace=wrap;align=center;" parent="1" vertex="1">
          <mxGeometry x="198" y="486.31" width="160" height="80" as="geometry" />
        </mxCell>
        <mxCell id="UPnkIHhBLGjSzcggygLr-6" value="&lt;div&gt;Temporal gap filling&lt;/div&gt;&lt;div&gt;e.g., interpolation&lt;br&gt;&lt;/div&gt;" style="shape=rect;html=1;rounded=1;whiteSpace=wrap;align=center;" parent="1" vertex="1">
          <mxGeometry x="198" y="646.31" width="160" height="80" as="geometry" />
        </mxCell>
        <mxCell id="UPnkIHhBLGjSzcggygLr-18" value="" style="edgeStyle=orthogonalEdgeStyle;rounded=0;orthogonalLoop=1;jettySize=auto;html=1;exitX=0.002;exitY=0.507;exitDx=0;exitDy=0;exitPerimeter=0;entryX=1.012;entryY=0.499;entryDx=0;entryDy=0;entryPerimeter=0;" parent="1" source="UPnkIHhBLGjSzcggygLr-12" target="1ZD0xMW8W7LvMb6wWIe3-1" edge="1">
          <mxGeometry relative="1" as="geometry">
            <mxPoint x="358" y="586" as="sourcePoint" />
            <Array as="points">
              <mxPoint x="358" y="581" />
            </Array>
          </mxGeometry>
        </mxCell>
        <mxCell id="UPnkIHhBLGjSzcggygLr-7" value="Unit transformation" style="shape=rect;html=1;rounded=1;whiteSpace=wrap;align=center;" parent="1" vertex="1">
          <mxGeometry x="378" y="486" width="160" height="80" as="geometry" />
        </mxCell>
        <mxCell id="UPnkIHhBLGjSzcggygLr-12" value="Harmonisation" style="html=1;shape=mxgraph.sysml.actPart;strokeWidth=3;verticalAlign=top;rotation=-90;whiteSpace=wrap;" parent="1" vertex="1">
          <mxGeometry x="303" y="336" width="110" height="380.62" as="geometry" />
        </mxCell>
        <mxCell id="UPnkIHhBLGjSzcggygLr-19" value="&lt;i&gt;Time aggregation&lt;br&gt;(check mean values and statistics)&lt;br&gt;&lt;/i&gt;" style="shape=rect;html=1;rounded=1;whiteSpace=wrap;align=center;" parent="1" vertex="1">
          <mxGeometry x="108" y="791.31" width="160" height="80" as="geometry" />
        </mxCell>
        <mxCell id="UPnkIHhBLGjSzcggygLr-25" style="edgeStyle=orthogonalEdgeStyle;rounded=0;orthogonalLoop=1;jettySize=auto;html=1;exitX=-0.01;exitY=0.5;exitDx=0;exitDy=0;entryX=0.25;entryY=0;entryDx=0;entryDy=0;exitPerimeter=0;" parent="1" source="1ZD0xMW8W7LvMb6wWIe3-3" target="UPnkIHhBLGjSzcggygLr-24" edge="1">
          <mxGeometry relative="1" as="geometry" />
        </mxCell>
        <mxCell id="UPnkIHhBLGjSzcggygLr-22" value="Visual inspection" style="shape=rect;html=1;rounded=1;whiteSpace=wrap;align=center;" parent="1" vertex="1">
          <mxGeometry x="278" y="791.31" width="160" height="80" as="geometry" />
        </mxCell>
        <mxCell id="UPnkIHhBLGjSzcggygLr-24" value="Data storage and preparation as model input" style="shape=rect;html=1;rounded=1;whiteSpace=wrap;align=center;" parent="1" vertex="1">
          <mxGeometry x="581" y="932" width="160" height="80" as="geometry" />
        </mxCell>
        <mxCell id="UPnkIHhBLGjSzcggygLr-49" value="" style="html=1;shape=mxgraph.sysml.actFinal;strokeWidth=2;verticalLabelPosition=bottom;verticalAlignment=top;" parent="1" vertex="1">
          <mxGeometry x="641.5" y="1613" width="40" height="40" as="geometry" />
        </mxCell>
        <mxCell id="1ZD0xMW8W7LvMb6wWIe3-1" value="Gap filling" style="html=1;shape=mxgraph.sysml.actPart;strokeWidth=3;verticalAlign=top;rotation=-90;whiteSpace=wrap;" parent="1" vertex="1">
          <mxGeometry x="302.99999999999994" y="496" width="110" height="380.62" as="geometry" />
        </mxCell>
        <mxCell id="1ZD0xMW8W7LvMb6wWIe3-2" value="&lt;div&gt;Parameters missing&lt;br&gt;&lt;/div&gt;&lt;div&gt;Data &quot;fusion&quot;&lt;/div&gt;&lt;div&gt;from other sites&lt;br&gt;&lt;/div&gt;" style="shape=rect;html=1;rounded=1;whiteSpace=wrap;align=center;" parent="1" vertex="1">
          <mxGeometry x="378" y="646.31" width="160" height="80" as="geometry" />
        </mxCell>
        <mxCell id="1ZD0xMW8W7LvMb6wWIe3-3" value="Quality control" style="html=1;shape=mxgraph.sysml.actPart;strokeWidth=3;verticalAlign=top;rotation=-90;whiteSpace=wrap;" parent="1" vertex="1">
          <mxGeometry x="297.77" y="556.23" width="110" height="550.15" as="geometry" />
        </mxCell>
        <mxCell id="1ZD0xMW8W7LvMb6wWIe3-5" value="Comparison with reference data / literature / other sites" style="shape=rect;html=1;rounded=1;whiteSpace=wrap;align=center;" parent="1" vertex="1">
          <mxGeometry x="448" y="791.31" width="160" height="80" as="geometry" />
        </mxCell>
        <mxCell id="07cjLLfpVbBd-uDX97Xu-4" value="" style="edgeStyle=orthogonalEdgeStyle;rounded=0;orthogonalLoop=1;jettySize=auto;html=1;exitX=-0.007;exitY=0.503;exitDx=0;exitDy=0;exitPerimeter=0;" parent="1" source="1ZD0xMW8W7LvMb6wWIe3-1" edge="1">
          <mxGeometry relative="1" as="geometry">
            <mxPoint x="359.5" y="742.31" as="sourcePoint" />
            <Array as="points">
              <mxPoint x="357" y="742" />
              <mxPoint x="357" y="756" />
              <mxPoint x="357" y="756" />
            </Array>
            <mxPoint x="357" y="776" as="targetPoint" />
          </mxGeometry>
        </mxCell>
        <mxCell id="07cjLLfpVbBd-uDX97Xu-5" style="edgeStyle=orthogonalEdgeStyle;rounded=0;orthogonalLoop=1;jettySize=auto;html=1;" parent="1" edge="1">
          <mxGeometry relative="1" as="geometry">
            <mxPoint x="660" y="280" as="targetPoint" />
            <mxPoint x="660" y="260" as="sourcePoint" />
          </mxGeometry>
        </mxCell>
        <mxCell id="07cjLLfpVbBd-uDX97Xu-7" value="&lt;div&gt;Harmonised&lt;/div&gt;&lt;div&gt;data&lt;/div&gt;" style="rhombus;whiteSpace=wrap;html=1;" parent="1" vertex="1">
          <mxGeometry x="612.5" y="358" width="95" height="90" as="geometry" />
        </mxCell>
        <mxCell id="07cjLLfpVbBd-uDX97Xu-11" value="" style="endArrow=none;dashed=1;html=1;rounded=0;entryX=1.001;entryY=0.523;entryDx=0;entryDy=0;entryPerimeter=0;exitX=0;exitY=0.523;exitDx=0;exitDy=0;exitPerimeter=0;" parent="1" source="1ZD0xMW8W7LvMb6wWIe3-1" target="1ZD0xMW8W7LvMb6wWIe3-1" edge="1">
          <mxGeometry width="50" height="50" relative="1" as="geometry">
            <mxPoint x="315" y="602" as="sourcePoint" />
            <mxPoint x="365" y="552" as="targetPoint" />
          </mxGeometry>
        </mxCell>
        <mxCell id="07cjLLfpVbBd-uDX97Xu-12" value="" style="endArrow=classic;html=1;rounded=0;exitX=1;exitY=0.5;exitDx=0;exitDy=0;entryX=-0.002;entryY=0.526;entryDx=0;entryDy=0;entryPerimeter=0;" parent="1" source="1ZD0xMW8W7LvMb6wWIe3-2" target="UPnkIHhBLGjSzcggygLr-2" edge="1">
          <mxGeometry width="50" height="50" relative="1" as="geometry">
            <mxPoint x="290" y="530" as="sourcePoint" />
            <mxPoint x="340" y="480" as="targetPoint" />
            <Array as="points">
              <mxPoint x="560" y="686" />
              <mxPoint x="560" y="120" />
            </Array>
          </mxGeometry>
        </mxCell>
        <mxCell id="07cjLLfpVbBd-uDX97Xu-13" value="Data postprocessing to added value data products" style="shape=rect;html=1;rounded=1;whiteSpace=wrap;align=center;" parent="1" vertex="1">
          <mxGeometry x="580.5" y="1328" width="160" height="80" as="geometry" />
        </mxCell>
        <mxCell id="07cjLLfpVbBd-uDX97Xu-14" value="Model run" style="rounded=1;whiteSpace=wrap;html=1;" parent="1" vertex="1">
          <mxGeometry x="586" y="1238" width="150" height="60" as="geometry" />
        </mxCell>
        <mxCell id="07cjLLfpVbBd-uDX97Xu-16" value="Ingestion of data into the model" style="shape=rect;html=1;rounded=1;whiteSpace=wrap;align=center;" parent="1" vertex="1">
          <mxGeometry x="581" y="1128" width="160" height="80" as="geometry" />
        </mxCell>
        <mxCell id="07cjLLfpVbBd-uDX97Xu-17" value="" style="endArrow=classic;html=1;rounded=0;exitX=0.5;exitY=1;exitDx=0;exitDy=0;entryX=0.5;entryY=-0.008;entryDx=0;entryDy=0;entryPerimeter=0;" parent="1" source="07cjLLfpVbBd-uDX97Xu-16" target="07cjLLfpVbBd-uDX97Xu-14" edge="1">
          <mxGeometry width="50" height="50" relative="1" as="geometry">
            <mxPoint x="634" y="1238" as="sourcePoint" />
            <mxPoint x="684" y="1188" as="targetPoint" />
          </mxGeometry>
        </mxCell>
        <mxCell id="07cjLLfpVbBd-uDX97Xu-18" value="" style="endArrow=classic;html=1;rounded=0;exitX=0.5;exitY=1;exitDx=0;exitDy=0;entryX=0.5;entryY=0;entryDx=0;entryDy=0;" parent="1" source="07cjLLfpVbBd-uDX97Xu-14" target="07cjLLfpVbBd-uDX97Xu-13" edge="1">
          <mxGeometry width="50" height="50" relative="1" as="geometry">
            <mxPoint x="554" y="1308" as="sourcePoint" />
            <mxPoint x="604" y="1258" as="targetPoint" />
          </mxGeometry>
        </mxCell>
        <mxCell id="07cjLLfpVbBd-uDX97Xu-19" value="Data storage and publication" style="shape=rect;html=1;rounded=1;whiteSpace=wrap;align=center;" parent="1" vertex="1">
          <mxGeometry x="581.5" y="1513" width="160" height="80" as="geometry" />
        </mxCell>
        <mxCell id="07cjLLfpVbBd-uDX97Xu-20" value="" style="endArrow=classic;html=1;rounded=0;exitX=0.5;exitY=1;exitDx=0;exitDy=0;" parent="1" source="07cjLLfpVbBd-uDX97Xu-13" target="SjM4pKuxqbGsweTknaMh-7" edge="1">
          <mxGeometry width="50" height="50" relative="1" as="geometry">
            <mxPoint x="554" y="1438" as="sourcePoint" />
            <mxPoint x="604" y="1388" as="targetPoint" />
          </mxGeometry>
        </mxCell>
        <mxCell id="07cjLLfpVbBd-uDX97Xu-21" value="" style="endArrow=classic;html=1;rounded=0;exitX=0.5;exitY=1;exitDx=0;exitDy=0;entryX=0.497;entryY=-0.019;entryDx=0;entryDy=0;entryPerimeter=0;" parent="1" source="07cjLLfpVbBd-uDX97Xu-19" target="UPnkIHhBLGjSzcggygLr-49" edge="1">
          <mxGeometry width="50" height="50" relative="1" as="geometry">
            <mxPoint x="555" y="1603" as="sourcePoint" />
            <mxPoint x="605" y="1553" as="targetPoint" />
          </mxGeometry>
        </mxCell>
        <mxCell id="SjM4pKuxqbGsweTknaMh-1" value="Retrieved data" style="rounded=0;whiteSpace=wrap;html=1;" parent="1" vertex="1">
          <mxGeometry x="580" y="280" width="160" height="60" as="geometry" />
        </mxCell>
        <mxCell id="SjM4pKuxqbGsweTknaMh-2" value="" style="endArrow=classic;html=1;rounded=0;exitX=0.5;exitY=1;exitDx=0;exitDy=0;entryX=0.5;entryY=0;entryDx=0;entryDy=0;" parent="1" source="SjM4pKuxqbGsweTknaMh-1" target="07cjLLfpVbBd-uDX97Xu-7" edge="1">
          <mxGeometry width="50" height="50" relative="1" as="geometry">
            <mxPoint x="520" y="270" as="sourcePoint" />
            <mxPoint x="570" y="220" as="targetPoint" />
          </mxGeometry>
        </mxCell>
        <mxCell id="SjM4pKuxqbGsweTknaMh-3" value="Compiled data set" style="rounded=0;whiteSpace=wrap;html=1;" parent="1" vertex="1">
          <mxGeometry x="580.5" y="1040" width="160.5" height="60" as="geometry" />
        </mxCell>
        <mxCell id="SjM4pKuxqbGsweTknaMh-5" value="" style="endArrow=classic;html=1;rounded=0;exitX=0.5;exitY=1;exitDx=0;exitDy=0;entryX=0.5;entryY=0;entryDx=0;entryDy=0;" parent="1" source="UPnkIHhBLGjSzcggygLr-24" target="SjM4pKuxqbGsweTknaMh-3" edge="1">
          <mxGeometry width="50" height="50" relative="1" as="geometry">
            <mxPoint x="704" y="1160" as="sourcePoint" />
            <mxPoint x="754" y="1110" as="targetPoint" />
          </mxGeometry>
        </mxCell>
        <mxCell id="SjM4pKuxqbGsweTknaMh-6" value="" style="endArrow=classic;html=1;rounded=0;exitX=0.5;exitY=1;exitDx=0;exitDy=0;entryX=0.5;entryY=0;entryDx=0;entryDy=0;" parent="1" source="SjM4pKuxqbGsweTknaMh-3" target="07cjLLfpVbBd-uDX97Xu-16" edge="1">
          <mxGeometry width="50" height="50" relative="1" as="geometry">
            <mxPoint x="724" y="1080" as="sourcePoint" />
            <mxPoint x="774" y="1030" as="targetPoint" />
          </mxGeometry>
        </mxCell>
        <mxCell id="SjM4pKuxqbGsweTknaMh-7" value="Result data set" style="rounded=0;whiteSpace=wrap;html=1;" parent="1" vertex="1">
          <mxGeometry x="583.5" y="1430" width="155" height="60" as="geometry" />
        </mxCell>
        <mxCell id="SjM4pKuxqbGsweTknaMh-8" value="" style="endArrow=classic;html=1;rounded=0;exitX=0.5;exitY=1;exitDx=0;exitDy=0;entryX=0.5;entryY=0;entryDx=0;entryDy=0;" parent="1" source="SjM4pKuxqbGsweTknaMh-7" target="07cjLLfpVbBd-uDX97Xu-19" edge="1">
          <mxGeometry width="50" height="50" relative="1" as="geometry">
            <mxPoint x="644" y="1500" as="sourcePoint" />
            <mxPoint x="694" y="1450" as="targetPoint" />
          </mxGeometry>
        </mxCell>
        <mxCell id="FsjZxJ8KU2Y5sSI8CzJn-1" value="Yes" style="endArrow=classic;html=1;rounded=0;exitX=0.5;exitY=1;exitDx=0;exitDy=0;entryX=0.5;entryY=0;entryDx=0;entryDy=0;" parent="1" source="07cjLLfpVbBd-uDX97Xu-7" target="UFakJ7oNwvelfTxw4RaF-1" edge="1">
          <mxGeometry width="50" height="50" relative="1" as="geometry">
            <mxPoint x="675" y="448" as="sourcePoint" />
            <mxPoint x="585" y="730" as="targetPoint" />
          </mxGeometry>
        </mxCell>
        <mxCell id="FsjZxJ8KU2Y5sSI8CzJn-3" value="Data retrieval" style="swimlane;whiteSpace=wrap;html=1;rotation=-90;" parent="1" vertex="1">
          <mxGeometry x="292.93" y="-202.54" width="200.38" height="734.69" as="geometry">
            <mxRectangle x="-14.060000000000002" y="290" width="100" height="30" as="alternateBounds" />
          </mxGeometry>
        </mxCell>
        <mxCell id="FsjZxJ8KU2Y5sSI8CzJn-5" value="Data preprocessing " style="swimlane;whiteSpace=wrap;html=1;rotation=-90;startSize=23;" parent="1" vertex="1">
          <mxGeometry x="107.63" y="370.56" width="571.37" height="734.69" as="geometry">
            <mxRectangle x="240" y="72" width="100" height="30" as="alternateBounds" />
          </mxGeometry>
        </mxCell>
        <mxCell id="UFakJ7oNwvelfTxw4RaF-1" value="&lt;div&gt;Quality&lt;/div&gt;&lt;div&gt;controlled&lt;/div&gt;&lt;div&gt;data&lt;/div&gt;" style="rhombus;whiteSpace=wrap;html=1;" parent="FsjZxJ8KU2Y5sSI8CzJn-5" vertex="1">
          <mxGeometry x="504.87" y="209.44" width="98.13" height="92.56" as="geometry" />
        </mxCell>
        <mxCell id="FsjZxJ8KU2Y5sSI8CzJn-7" value="&lt;div&gt;Data processing - generation of new data product&lt;/div&gt;" style="swimlane;whiteSpace=wrap;html=1;rotation=-90;startSize=23;" parent="1" vertex="1">
          <mxGeometry x="239.97" y="895.78" width="306.29" height="734.69" as="geometry">
            <mxRectangle x="240" y="72" width="100" height="30" as="alternateBounds" />
          </mxGeometry>
        </mxCell>
        <mxCell id="UFakJ7oNwvelfTxw4RaF-2" value="" style="endArrow=classic;html=1;rounded=0;exitX=0;exitY=0.5;exitDx=0;exitDy=0;entryX=1.015;entryY=0.949;entryDx=0;entryDy=0;entryPerimeter=0;" parent="1" source="UFakJ7oNwvelfTxw4RaF-1" target="1ZD0xMW8W7LvMb6wWIe3-3" edge="1">
          <mxGeometry width="50" height="50" relative="1" as="geometry">
            <mxPoint x="710" y="740" as="sourcePoint" />
            <mxPoint x="760" y="690" as="targetPoint" />
            <Array as="points">
              <mxPoint x="600" y="626" />
            </Array>
          </mxGeometry>
        </mxCell>
        <mxCell id="UFakJ7oNwvelfTxw4RaF-3" value="No" style="edgeLabel;html=1;align=center;verticalAlign=middle;resizable=0;points=[];" parent="UFakJ7oNwvelfTxw4RaF-2" connectable="0" vertex="1">
          <mxGeometry x="0.0487" y="-1" relative="1" as="geometry">
            <mxPoint as="offset" />
          </mxGeometry>
        </mxCell>
        <mxCell id="UFakJ7oNwvelfTxw4RaF-4" value="" style="endArrow=classic;html=1;rounded=0;exitX=0.5;exitY=1;exitDx=0;exitDy=0;entryX=0.5;entryY=0;entryDx=0;entryDy=0;" parent="1" source="UFakJ7oNwvelfTxw4RaF-1" target="UPnkIHhBLGjSzcggygLr-24" edge="1">
          <mxGeometry width="50" height="50" relative="1" as="geometry">
            <mxPoint x="610" y="780" as="sourcePoint" />
            <mxPoint x="660" y="730" as="targetPoint" />
          </mxGeometry>
        </mxCell>
        <mxCell id="UFakJ7oNwvelfTxw4RaF-5" value="Yes" style="edgeLabel;html=1;align=center;verticalAlign=middle;resizable=0;points=[];" parent="UFakJ7oNwvelfTxw4RaF-4" connectable="0" vertex="1">
          <mxGeometry x="-0.164" y="1" relative="1" as="geometry">
            <mxPoint as="offset" />
          </mxGeometry>
        </mxCell>
      </root>
    </mxGraphModel>
  </diagram>
</mxfile>
